<svg xmlns="http://www.w3.org/2000/svg" width="771" height="658" viewBox="0 0 771 658" font-family="Helvetica, Arial, sans-serif">
<rect width="771" height="658" fill="#ffffff"/>
<polygon points="506.8,70.0 580.2,70.0 580.2,255.8 627.5,255.9 627.5,306.6 507.3,306.6 507.3,447.1 70.0,447.2 70.0,362.7 180.8,362.6 180.8,329.6 425.4,329.6 425.3,291.8 451.1,291.8 451.2,219.8 506.7,219.8" fill="#e8eef7" stroke="#222" stroke-width="3" stroke-linejoin="miter"/>
<polygon points="510.1,441.5 510.1,384.3 601.0,384.3 601.0,411.5 701.5,411.5 701.5,546.2 565.0,546.2 565.0,487.6 536.2,487.7 536.2,548.5 495.2,548.5 495.2,441.5" fill="#eef5e9" stroke="#222" stroke-width="3" stroke-linejoin="miter"/>
<text x="419" y="277" text-anchor="middle" font-size="14" font-weight="bold" fill="#111">room 1</text>
<text x="419" y="294" text-anchor="middle" font-size="11" fill="#333">11.66 ± 1.06 m²</text>
<text x="419" y="309" text-anchor="middle" font-size="10" fill="#555">ceiling not seen</text>
<text x="536" y="82" text-anchor="middle" font-size="9" fill="#1f3a93" transform="rotate(-0.0 536 82)">0.92 ± 0.09</text>
<text x="569" y="171" text-anchor="middle" font-size="9" fill="#1f3a93" transform="rotate(-90.0 569 171)">2.32 ± 0.08</text>
<text x="590" y="258" text-anchor="middle" font-size="9" fill="#1f3a93" transform="rotate(0.1 590 258)">0.59 ± 0.04</text>
<text x="614" y="282" text-anchor="middle" font-size="9" fill="#1f3a93" transform="rotate(-90.0 614 282)">0.63 ± 0.08</text>
<text x="554" y="305" text-anchor="middle" font-size="9" fill="#1f3a93" transform="rotate(0.0 554 305)">1.50 ± 0.03</text>
<text x="498" y="367" text-anchor="middle" font-size="9" fill="#1f3a93" transform="rotate(-90.0 498 367)">1.76 ± 0.03</text>
<text x="297" y="436" text-anchor="middle" font-size="9" fill="#1f3a93" transform="rotate(-0.0 297 436)">5.47 ± 0.03</text>
<text x="83" y="400" text-anchor="middle" font-size="9" fill="#1f3a93" transform="rotate(-90.0 83 400)">1.06 ± 0.04</text>
<text x="139" y="359" text-anchor="middle" font-size="9" fill="#1f3a93" transform="rotate(-0.0 139 359)">1.39 ± 0.03</text>
<text x="316" y="325" text-anchor="middle" font-size="9" fill="#1f3a93" transform="rotate(-0.0 316 325)">3.06 ± 0.03</text>
<text x="441" y="265" text-anchor="middle" font-size="9" fill="#1f3a93" transform="rotate(-90.0 441 265)">0.90 ± 0.12</text>
<text x="469" y="230" text-anchor="middle" font-size="9" fill="#1f3a93" transform="rotate(0.0 469 230)">0.69 ± 0.09</text>
<text x="499" y="157" text-anchor="middle" font-size="9" fill="#1f3a93" transform="rotate(-90.0 499 157)">1.87 ± 0.09</text>
<line x1="507.3" y1="349.1" x2="507.3" y2="432.4" stroke="#ffffff" stroke-width="5"/>
<line x1="507.3" y1="349.1" x2="507.3" y2="432.4" stroke="#c0392b" stroke-width="1.5" stroke-dasharray="3,2"/>
<text x="568" y="462" text-anchor="middle" font-size="14" font-weight="bold" fill="#111">room 2</text>
<text x="568" y="479" text-anchor="middle" font-size="11" fill="#333">4.41 ± 0.35 m²</text>
<text x="568" y="494" text-anchor="middle" font-size="10" fill="#555">ceiling not seen</text>
<text x="520" y="423" text-anchor="middle" font-size="9" fill="#1f3a93" transform="rotate(-90.0 520 423)">0.71 ± 0.03</text>
<text x="558" y="398" text-anchor="middle" font-size="9" fill="#1f3a93" transform="rotate(-0.0 558 398)">1.14 ± 0.03</text>
<text x="640" y="420" text-anchor="middle" font-size="9" fill="#1f3a93" transform="rotate(0.0 640 420)">1.26 ± 0.03</text>
<text x="688" y="478" text-anchor="middle" font-size="9" fill="#1f3a93" transform="rotate(-90.0 688 478)">1.68 ± 0.03</text>
<text x="624" y="536" text-anchor="middle" font-size="9" fill="#1f3a93" transform="rotate(0.0 624 536)">1.71 ± 0.03</text>
<text x="566" y="503" text-anchor="middle" font-size="9" fill="#1f3a93" transform="rotate(90.0 566 503)">0.73 ± 0.08</text>
<text x="544" y="506" text-anchor="middle" font-size="9" fill="#1f3a93" transform="rotate(-90.0 544 506)">0.76 ± 0.08</text>
<text x="508" y="490" text-anchor="middle" font-size="9" fill="#1f3a93" transform="rotate(90.0 508 490)">1.34 ± 0.03</text>
<line x1="510.1" y1="432.4" x2="510.1" y2="349.0" stroke="#ffffff" stroke-width="5"/>
<line x1="510.1" y1="432.4" x2="510.1" y2="349.0" stroke="#c0392b" stroke-width="1.5" stroke-dasharray="3,2"/>
<text x="70" y="640" font-size="12" fill="#333">c00a170fe1 · lidar · 2 rooms · footprint 16.06 ± 1.40 m² · ranges are 90%</text>
</svg>