<svg xmlns="http://www.w3.org/2000/svg" width="905" height="1014" viewBox="0 0 905 1014" font-family="Helvetica, Arial, sans-serif">
<rect width="905" height="1014" fill="#ffffff"/>
<polygon points="550.0,207.5 550.0,450.0 606.5,450.1 606.6,554.9 378.4,554.9 378.4,642.0 287.0,642.0 287.0,590.9 213.3,590.8 213.3,514.3 112.4,514.3 112.4,395.5 216.2,395.5 216.2,374.0 295.1,374.0 295.0,470.0 321.0,470.0 321.0,207.5" fill="#e8eef7" stroke="#222" stroke-width="3" stroke-linejoin="miter"/>
<polygon points="610.9,165.1 704.8,165.1 704.8,258.5 745.3,258.5 745.3,306.5 816.3,306.5 816.3,366.5 763.3,366.5 763.3,409.3 642.3,409.3 642.3,444.5 557.3,444.4 557.4,379.1 610.9,379.1" fill="#eef5e9" stroke="#222" stroke-width="3" stroke-linejoin="miter"/>
<polygon points="282.9,732.9 283.0,648.9 373.7,648.8 373.7,904.4 280.3,904.4 280.3,862.2 168.8,862.2 168.8,687.8 221.2,687.8 221.1,732.9" fill="#f7efe6" stroke="#222" stroke-width="3" stroke-linejoin="miter"/>
<polygon points="207.3,70.0 207.2,263.7 307.2,263.7 307.2,371.6 218.1,371.6 218.1,324.3 70.0,324.3 70.0,70.0" fill="#f1e9f5" stroke="#222" stroke-width="3" stroke-linejoin="miter"/>
<polygon points="618.5,545.9 618.5,487.3 739.0,487.3 739.0,519.8 836.0,519.8 836.0,656.5 701.2,656.5 701.2,601.6 631.9,601.7 631.9,545.9" fill="#e6f3f3" stroke="#222" stroke-width="3" stroke-linejoin="miter"/>
<text x="331" y="459" text-anchor="middle" font-size="14" font-weight="bold" fill="#111">room 1</text>
<text x="331" y="476" text-anchor="middle" font-size="11" fill="#333">19.53 ± 0.89 m²</text>
<text x="331" y="491" text-anchor="middle" font-size="10" fill="#555">ceiling 2.45 ± 0.03 m</text>
<text x="538" y="336" text-anchor="middle" font-size="9" fill="#1f3a93" transform="rotate(-90.0 538 336)">3.03 ± 0.08</text>
<text x="564" y="451" text-anchor="middle" font-size="9" fill="#1f3a93" transform="rotate(0.0 564 451)">0.71 ± 0.09</text>
<text x="593" y="501" text-anchor="middle" font-size="9" fill="#1f3a93" transform="rotate(90.0 593 501)">1.31 ± 0.08</text>
<text x="480" y="548" text-anchor="middle" font-size="9" fill="#1f3a93" transform="rotate(0.0 480 548)">2.85 ± 0.08</text>
<text x="374" y="585" text-anchor="middle" font-size="9" fill="#1f3a93" transform="rotate(90.0 374 585)">1.09 ± 0.08</text>
<text x="333" y="628" text-anchor="middle" font-size="9" fill="#1f3a93" transform="rotate(0.0 333 628)">1.14 ± 0.03</text>
<text x="291" y="603" text-anchor="middle" font-size="9" fill="#1f3a93" transform="rotate(90.0 291 603)">0.64 ± 0.08</text>
<text x="258" y="579" text-anchor="middle" font-size="9" fill="#1f3a93" transform="rotate(0.0 258 579)">0.92 ± 0.03</text>
<text x="225" y="544" text-anchor="middle" font-size="9" fill="#1f3a93" transform="rotate(-90.0 225 544)">0.96 ± 0.03</text>
<text x="176" y="510" text-anchor="middle" font-size="9" fill="#1f3a93" transform="rotate(0.0 176 510)">1.26 ± 0.03</text>
<text x="126" y="456" text-anchor="middle" font-size="9" fill="#1f3a93" transform="rotate(90.0 126 456)">1.49 ± 0.03</text>
<text x="177" y="401" text-anchor="middle" font-size="9" fill="#1f3a93" transform="rotate(-0.0 177 401)">1.30 ± 0.03</text>
<text x="264" y="385" text-anchor="middle" font-size="9" fill="#1f3a93" transform="rotate(-0.0 264 385)">0.98 ± 0.03</text>
<text x="304" y="433" text-anchor="middle" font-size="9" fill="#1f3a93" transform="rotate(-90.0 304 433)">1.20 ± 0.08</text>
<text x="322" y="353" text-anchor="middle" font-size="9" fill="#1f3a93" transform="rotate(-90.0 322 353)">3.28 ± 0.03</text>
<text x="430" y="220" text-anchor="middle" font-size="9" fill="#1f3a93" transform="rotate(0.0 430 220)">2.86 ± 0.03</text>
<line x1="220.3" y1="374.0" x2="299.0" y2="374.0" stroke="#ffffff" stroke-width="5"/>
<line x1="220.3" y1="374.0" x2="299.0" y2="374.0" stroke="#c0392b" stroke-width="1.5" stroke-dasharray="3,2"/>
<line x1="560.4" y1="450.0" x2="629.8" y2="450.1" stroke="#ffffff" stroke-width="5"/>
<line x1="560.4" y1="450.0" x2="629.8" y2="450.1" stroke="#c0392b" stroke-width="1.5" stroke-dasharray="3,2"/>
<line x1="369.3" y1="642.0" x2="288.9" y2="642.0" stroke="#ffffff" stroke-width="5"/>
<line x1="369.3" y1="642.0" x2="288.9" y2="642.0" stroke="#c0392b" stroke-width="1.5" stroke-dasharray="3,2"/>
<line x1="606.5" y1="458.3" x2="606.6" y2="533.0" stroke="#ffffff" stroke-width="5"/>
<line x1="606.5" y1="458.3" x2="606.6" y2="533.0" stroke="#c0392b" stroke-width="1.5" stroke-dasharray="3,2"/>
<text x="691" y="325" text-anchor="middle" font-size="14" font-weight="bold" fill="#111">room 2</text>
<text x="691" y="342" text-anchor="middle" font-size="11" fill="#333">6.04 ± 0.67 m²</text>
<text x="691" y="357" text-anchor="middle" font-size="10" fill="#555">ceiling 3.08 ± 0.03 m</text>
<text x="661" y="179" text-anchor="middle" font-size="9" fill="#1f3a93" transform="rotate(0.0 661 179)">1.17 ± 0.05</text>
<text x="703" y="226" text-anchor="middle" font-size="9" fill="#1f3a93" transform="rotate(-90.0 703 226)">1.17 ± 0.08</text>
<text x="735" y="292" text-anchor="middle" font-size="9" fill="#1f3a93" transform="rotate(-90.0 735 292)">0.60 ± 0.12</text>
<text x="767" y="310" text-anchor="middle" font-size="9" fill="#1f3a93" transform="rotate(-0.0 767 310)">0.89 ± 0.09</text>
<text x="802" y="336" text-anchor="middle" font-size="9" fill="#1f3a93" transform="rotate(-90.0 802 336)">0.75 ± 0.12</text>
<text x="777" y="362" text-anchor="middle" font-size="9" fill="#1f3a93" transform="rotate(0.0 777 362)">0.66 ± 0.09</text>
<text x="701" y="395" text-anchor="middle" font-size="9" fill="#1f3a93" transform="rotate(-0.0 701 395)">1.51 ± 0.09</text>
<text x="609" y="434" text-anchor="middle" font-size="9" fill="#1f3a93" transform="rotate(0.0 609 434)">1.06 ± 0.03</text>
<text x="569" y="405" text-anchor="middle" font-size="9" fill="#1f3a93" transform="rotate(-90.0 569 405)">0.82 ± 0.09</text>
<text x="597" y="374" text-anchor="middle" font-size="9" fill="#1f3a93" transform="rotate(0.0 597 374)">0.67 ± 0.03</text>
<text x="622" y="281" text-anchor="middle" font-size="9" fill="#1f3a93" transform="rotate(90.0 622 281)">2.67 ± 0.04</text>
<line x1="629.8" y1="444.5" x2="560.4" y2="444.4" stroke="#ffffff" stroke-width="5"/>
<line x1="629.8" y1="444.5" x2="560.4" y2="444.4" stroke="#c0392b" stroke-width="1.5" stroke-dasharray="3,2"/>
<text x="265" y="759" text-anchor="middle" font-size="14" font-weight="bold" fill="#111">room 3</text>
<text x="265" y="776" text-anchor="middle" font-size="11" fill="#333">6.32 ± 0.55 m²</text>
<text x="265" y="791" text-anchor="middle" font-size="10" fill="#555">ceiling 2.42 ± 0.03 m</text>
<text x="280" y="705" text-anchor="middle" font-size="9" fill="#1f3a93" transform="rotate(-89.9 280 705)">1.05 ± 0.12</text>
<text x="322" y="661" text-anchor="middle" font-size="9" fill="#1f3a93" transform="rotate(-0.0 322 661)">1.14 ± 0.03</text>
<text x="360" y="775" text-anchor="middle" font-size="9" fill="#1f3a93" transform="rotate(90.0 360 775)">3.19 ± 0.08</text>
<text x="321" y="892" text-anchor="middle" font-size="9" fill="#1f3a93" transform="rotate(0.0 321 892)">1.17 ± 0.03</text>
<text x="230" y="849" text-anchor="middle" font-size="9" fill="#1f3a93" transform="rotate(-0.0 230 849)">1.39 ± 0.03</text>
<text x="183" y="774" text-anchor="middle" font-size="9" fill="#1f3a93" transform="rotate(-90.0 183 774)">2.18 ± 0.06</text>
<text x="204" y="698" text-anchor="middle" font-size="9" fill="#1f3a93" transform="rotate(0.1 204 698)">0.66 ± 0.09</text>
<text x="230" y="721" text-anchor="middle" font-size="9" fill="#1f3a93" transform="rotate(-90.0 230 721)">0.56 ± 0.10</text>
<text x="257" y="746" text-anchor="middle" font-size="9" fill="#1f3a93" transform="rotate(-0.0 257 746)">0.77 ± 0.09</text>
<line x1="288.9" y1="648.9" x2="369.3" y2="648.8" stroke="#ffffff" stroke-width="5"/>
<line x1="288.9" y1="648.9" x2="369.3" y2="648.8" stroke="#c0392b" stroke-width="1.5" stroke-dasharray="3,2"/>
<text x="201" y="249" text-anchor="middle" font-size="14" font-weight="bold" fill="#111">room 4</text>
<text x="201" y="266" text-anchor="middle" font-size="11" fill="#333">7.06 ± 0.42 m²</text>
<text x="201" y="281" text-anchor="middle" font-size="10" fill="#555">ceiling 2.97 ± 0.03 m</text>
<text x="206" y="181" text-anchor="middle" font-size="9" fill="#1f3a93" transform="rotate(-90.0 206 181)">2.42 ± 0.04</text>
<text x="243" y="262" text-anchor="middle" font-size="9" fill="#1f3a93" transform="rotate(0.0 243 262)">1.25 ± 0.03</text>
<text x="295" y="311" text-anchor="middle" font-size="9" fill="#1f3a93" transform="rotate(-90.0 295 311)">1.35 ± 0.09</text>
<text x="256" y="359" text-anchor="middle" font-size="9" fill="#1f3a93" transform="rotate(-0.0 256 359)">1.11 ± 0.03</text>
<text x="215" y="334" text-anchor="middle" font-size="9" fill="#1f3a93" transform="rotate(90.0 215 334)">0.59 ± 0.09</text>
<text x="153" y="314" text-anchor="middle" font-size="9" fill="#1f3a93" transform="rotate(0.0 153 314)">1.85 ± 0.03</text>
<text x="83" y="203" text-anchor="middle" font-size="9" fill="#1f3a93" transform="rotate(-90.0 83 203)">3.18 ± 0.03</text>
<text x="143" y="83" text-anchor="middle" font-size="9" fill="#1f3a93" transform="rotate(0.0 143 83)">1.72 ± 0.03</text>
<line x1="299.0" y1="371.6" x2="220.3" y2="371.6" stroke="#ffffff" stroke-width="5"/>
<line x1="299.0" y1="371.6" x2="220.3" y2="371.6" stroke="#c0392b" stroke-width="1.5" stroke-dasharray="3,2"/>
<text x="705" y="554" text-anchor="middle" font-size="14" font-weight="bold" fill="#111">room 5</text>
<text x="705" y="571" text-anchor="middle" font-size="11" fill="#333">4.43 ± 0.34 m²</text>
<text x="705" y="586" text-anchor="middle" font-size="10" fill="#555">ceiling 2.35 ± 0.03 m</text>
<text x="631" y="523" text-anchor="middle" font-size="9" fill="#1f3a93" transform="rotate(90.0 631 523)">0.73 ± 0.03</text>
<text x="683" y="501" text-anchor="middle" font-size="9" fill="#1f3a93" transform="rotate(0.0 683 501)">1.51 ± 0.08</text>
<text x="775" y="526" text-anchor="middle" font-size="9" fill="#1f3a93" transform="rotate(-0.0 775 526)">1.21 ± 0.03</text>
<text x="822" y="585" text-anchor="middle" font-size="9" fill="#1f3a93" transform="rotate(-90.0 822 585)">1.71 ± 0.03</text>
<text x="761" y="645" text-anchor="middle" font-size="9" fill="#1f3a93" transform="rotate(0.0 761 645)">1.69 ± 0.03</text>
<text x="702" y="615" text-anchor="middle" font-size="9" fill="#1f3a93" transform="rotate(90.0 702 615)">0.69 ± 0.10</text>
<text x="676" y="592" text-anchor="middle" font-size="9" fill="#1f3a93" transform="rotate(-0.1 676 592)">0.87 ± 0.03</text>
<text x="646" y="572" text-anchor="middle" font-size="9" fill="#1f3a93" transform="rotate(90.0 646 572)">0.70 ± 0.10</text>
<line x1="618.5" y1="533.0" x2="618.5" y2="458.3" stroke="#ffffff" stroke-width="5"/>
<line x1="618.5" y1="533.0" x2="618.5" y2="458.3" stroke="#c0392b" stroke-width="1.5" stroke-dasharray="3,2"/>
<text x="70" y="996" font-size="12" fill="#333">c7d28f72c6 · lidar · 5 rooms · footprint 43.39 ± 2.89 m² · ranges are 90%</text>
</svg>